<?xml version="1.0" encoding="UTF-8" standalone="no"?>
<!-- Created with Inkscape (http://www.inkscape.org/) -->

<svg
   xmlns:dc="http://purl.org/dc/elements/1.1/"
   xmlns:cc="http://creativecommons.org/ns#"
   xmlns:rdf="http://www.w3.org/1999/02/22-rdf-syntax-ns#"
   xmlns:svg="http://www.w3.org/2000/svg"
   xmlns="http://www.w3.org/2000/svg"
   xmlns:sodipodi="http://sodipodi.sourceforge.net/DTD/sodipodi-0.dtd"
   xmlns:inkscape="http://www.inkscape.org/namespaces/inkscape"
   id="svg3432"
   version="1.1"
   inkscape:version="0.91 r13725"
   xml:space="preserve"
   width="354.33072"
   height="212.59843"
   viewBox="0 0 354.33072 212.59843"
   sodipodi:docname="Transnusa_Air2.svg"><metadata
     id="metadata3438"><rdf:RDF><cc:Work
         rdf:about=""><dc:format>image/svg+xml</dc:format><dc:type
           rdf:resource="http://purl.org/dc/dcmitype/StillImage" /><dc:title></dc:title></cc:Work></rdf:RDF></metadata><defs
     id="defs3436"><clipPath
       clipPathUnits="userSpaceOnUse"
       id="clipPath3450"><path
         d="m 29.80615,-46.5415 c 0,0 1.22754,22.10156 16.57569,21.48779 0,0 -23.02198,4.29736 -6.13916,19.95264 0,0 -37.44971,-6.44629 -10.43653,-41.44043 z"
         id="path3452"
         inkscape:connector-curvature="0" /></clipPath><clipPath
       clipPathUnits="userSpaceOnUse"
       id="clipPath3466"><path
         d="m 50.67969,-24.43994 c 0,0 11.35742,2.14892 18.41748,-1.22754 0,0 -3.06934,24.25 -26.39893,11.66455 0,0 13.50635,0.30713 7.98145,-10.43701 z"
         id="path3468"
         inkscape:connector-curvature="0" /></clipPath><clipPath
       clipPathUnits="userSpaceOnUse"
       id="clipPath3480"><path
         d="m 29.80615,-54.82959 c 0,0 -5.52539,-28.24072 11.35742,-52.18457 16.88282,-23.94336 25.78516,-54.64014 25.78516,-54.64014 0,0 9.27051,15.31153 -3.37695,48.19385 -1.53467,3.99072 -1.8418,4.91162 -9.51563,22.10156 0,0 15.04102,-15.96191 33.76612,-27.93359 19.60449,-12.53467 15.34814,-8.90234 15.34814,-8.90234 0,0 -3.68359,17.19043 -34.37988,40.21289 0,0 21.4873,-15.65528 55.86718,-11.05078 0,0 -28.85449,2.76269 -54.02539,20.87353 0,0 28.8545,-15.9624 58.01612,3.99072 0,0 -46.04492,-6.13916 -98.84229,19.33887 z"
         id="path3482"
         inkscape:connector-curvature="0" /></clipPath><clipPath
       clipPathUnits="userSpaceOnUse"
       id="clipPath3502"><path
         d="m 49.45166,-50.37842 c 0,-2.96679 2.40527,-5.37207 5.37207,-5.37207 2.9668,0 5.37158,2.40528 5.37158,5.37207 0,2.9668 -2.40478,5.37158 -5.37158,5.37158 -2.9668,0 -5.37207,-2.40478 -5.37207,-5.37158 z"
         id="path3504"
         inkscape:connector-curvature="0" /></clipPath></defs><sodipodi:namedview
     pagecolor="#ffffff"
     bordercolor="#666666"
     borderopacity="1"
     objecttolerance="10"
     gridtolerance="10"
     guidetolerance="10"
     inkscape:pageopacity="0"
     inkscape:pageshadow="2"
     inkscape:window-width="1280"
     inkscape:window-height="744"
     id="namedview3434"
     showgrid="false"
     inkscape:zoom="2.554111"
     inkscape:cx="177.16536"
     inkscape:cy="106.29922"
     inkscape:window-x="-4"
     inkscape:window-y="-4"
     inkscape:window-maximized="1"
     inkscape:current-layer="g3440" /><g
     id="g3440"
     inkscape:groupmode="layer"
     inkscape:label="Transnusa_Air"
     transform="matrix(1.25,0,0,-1.25,0,212.59843)"><g
       id="g3442"
       transform="scale(1,-1)"><path
         d="m 29.80615,-46.5415 c 0,0 1.22754,22.10156 16.57569,21.48779 0,0 -23.02198,4.29736 -6.13916,19.95264 0,0 -37.44971,-6.44629 -10.43653,-41.44043 z"
         style="fill:#fcd31d;fill-opacity:1;fill-rule:nonzero;stroke:none"
         id="path3444"
         inkscape:connector-curvature="0" /><g
         id="g3446"><g
           id="g3448"
           clip-path="url(#clipPath3450)"><path
             d="m 30.1709,-43.24316 c 0,0 9.83838,21.46386 25.19531,14.9873 0,0 -26.5459,15.30078 -3.30517,24.38281 0,0 -37.29639,-1.84179 -21.89014,-39.37011 z"
             style="fill:#231f20;fill-opacity:1;fill-rule:evenodd;stroke:none"
             id="path3454"
             inkscape:connector-curvature="0" /><path
             d="m 39.05566,-7.9126 c 0,0 -20.51367,-4.68896 -17.29003,-30.77148 0,0 -7.9126,6.15429 -7.9126,6.15429 0,0 -2.63721,22.85889 -2.63721,22.85889 0,0 19.34131,8.20557 19.34131,8.20557 0,0 16.11816,1.46533 16.11816,1.46533 0,0 -3.5166,-7.0332 -3.5166,-7.0332 0,0 -4.10303,-0.8794 -4.10303,-0.8794 z"
             style="fill:#da1259;fill-opacity:1;fill-rule:evenodd;stroke:none"
             id="path3456"
             inkscape:connector-curvature="0" /><path
             d="m 38.40088,-46.5415 c 0,0 1.22803,22.10156 16.57617,21.48779 0,0 -23.02246,4.29736 -6.13916,19.95264 0,0 -37.44971,-6.44629 -10.43701,-41.44043 z"
             style="fill:#da1259;fill-opacity:1;fill-rule:evenodd;stroke:none"
             id="path3458"
             inkscape:connector-curvature="0" /></g></g><path
         d="m 50.67969,-24.43994 c 0,0 11.35742,2.14892 18.41748,-1.22754 0,0 -3.06934,24.25 -26.39893,11.66455 0,0 13.50635,0.30713 7.98145,-10.43701 z"
         style="fill:#fcd31d;fill-opacity:1;fill-rule:nonzero;stroke:none"
         id="path3460"
         inkscape:connector-curvature="0" /><g
         id="g3462"><g
           id="g3464"
           clip-path="url(#clipPath3466)"><path
             d="m 52.86377,-23.88428 c 0,0 13.51807,-3.19238 19.61816,-10.3501 0,0 8.48291,28.12159 -23.27832,25.70801 0,0 14.97705,-6.26465 3.66016,-15.35791 z"
             style="fill:#231f20;fill-opacity:1;fill-rule:evenodd;stroke:none"
             id="path3470"
             inkscape:connector-curvature="0" /><path
             d="m 56.2085,-24.59131 c 0,0 13.74463,-2.00195 20.44531,-8.60058 0,0 5.99951,28.75341 -25.43018,23.58105 0,0 15.46582,-4.93555 4.98487,-14.98047 z"
             style="fill:#da1259;fill-opacity:1;fill-rule:evenodd;stroke:none"
             id="path3472"
             inkscape:connector-curvature="0" /></g></g><path
         d="m 29.80615,-54.82959 c 0,0 -5.52539,-28.24072 11.35742,-52.18457 16.88282,-23.94336 25.78516,-54.64014 25.78516,-54.64014 0,0 9.27051,15.31153 -3.37695,48.19385 -1.53467,3.99072 -1.8418,4.91162 -9.51563,22.10156 0,0 15.04102,-15.96191 33.76612,-27.93359 19.60449,-12.53467 15.34814,-8.90234 15.34814,-8.90234 0,0 -3.68359,17.19043 -34.37988,40.21289 0,0 21.4873,-15.65528 55.86718,-11.05078 0,0 -28.85449,2.76269 -54.02539,20.87353 0,0 28.8545,-15.9624 58.01612,3.99072 0,0 -46.04492,-6.13916 -98.84229,19.33887 z"
         style="fill:#fcd31d;fill-opacity:1;fill-rule:nonzero;stroke:none"
         id="path3474"
         inkscape:connector-curvature="0" /><g
         id="g3476"><g
           id="g3478"
           clip-path="url(#clipPath3480)"><path
             d="m 68.4834,-166.87256 c 0,0 -0.9209,14.73438 -10.43701,35.30127 -9.51563,20.5669 -13.19922,32.23145 -13.81299,38.98486 0,0 20.87353,-16.8833 20.87353,-16.8833 0,0 13.81299,-46.35205 13.81299,-46.35205 0,0 -10.43652,-11.05078 -10.43652,-11.05078 z"
             style="fill:#231f20;fill-opacity:1;fill-rule:evenodd;stroke:none"
             id="path3484"
             inkscape:connector-curvature="0" /><path
             d="m 58.66064,-87.06104 c 0.61377,-1.53515 29.7754,-41.74755 50.64893,-47.27294 0,0 7.06006,10.43701 7.06006,10.43701 0,0 -50.03516,41.1333 -50.03516,41.1333 0,0 -7.67383,-4.29737 -7.67383,-4.29737 z"
             style="fill:#231f20;fill-opacity:1;fill-rule:evenodd;stroke:none"
             id="path3486"
             inkscape:connector-curvature="0" /><path
             d="m 72.16699,-83.99121 c 0,0 18.72461,-17.8042 18.72461,-17.8042 0,0 12.27881,-6.44629 12.27881,-6.44629 0,0 11.66455,0.30664 11.66455,0.30664 0,0 0.61377,5.21875 0.61377,5.21875 0,0 -16.26904,5.21826 -22.10156,14.73438 0,0 -21.18018,3.99072 -21.18018,3.99072 z"
             style="fill:#231f20;fill-opacity:1;fill-rule:evenodd;stroke:none"
             id="path3488"
             inkscape:connector-curvature="0" /><path
             d="m 74.92969,-76.62402 c 0,0 20.87353,-11.35791 20.87353,-11.35791 0,0 10.74366,0.30713 10.74366,0.30713 0,0 6.13916,3.68359 6.13916,3.68359 0,0 -9.2085,6.75293 -9.2085,6.75293 0,0 -21.18066,2.14892 -21.18066,2.14892 0,0 -7.36719,-1.53466 -7.36719,-1.53466 z"
             style="fill:#231f20;fill-opacity:1;fill-rule:evenodd;stroke:none"
             id="path3490"
             inkscape:connector-curvature="0" /><path
             d="m 34.95313,-53.62988 c 0,0 -9.37793,-27.25489 7.32617,-59.19825 0,0 -9.08448,-3.22363 -9.08448,-3.22363 0,0 -15.82519,24.6167 -15.82519,24.6167 0,0 3.22363,32.23682 3.22363,32.23682 0,0 5.2749,7.61963 5.2749,7.61963 0,0 9.08497,-2.05127 9.08497,-2.05127 z"
             style="fill:#231f20;fill-opacity:1;fill-rule:evenodd;stroke:none"
             id="path3492"
             inkscape:connector-curvature="0" /><path
             d="m 71.85986,-151.21729 c 0,0 2.7627,1.8418 2.7627,1.8418 0,0 -3.37647,34.07324 -3.37647,34.07324 -0.92089,12.89307 -8.28808,25.47852 -8.28808,25.47852 15.65527,-20.87402 46.35156,-35.91504 46.35156,-35.91504 0,0 3.68359,19.03174 -7.67383,22.71533 -11.35791,3.6836 -24.25049,15.9624 -24.25049,15.9624 33.45899,-17.80419 52.79786,-10.43701 52.79786,-10.43701 0,0 -32.23145,11.35791 -32.23145,11.35791 -11.66455,2.7627 -17.49658,8.28809 -17.49658,8.28809 9.20898,-5.83252 34.37988,-7.36719 34.37988,-7.36719 0,0 16.26904,7.98096 16.26904,7.98096 0,0 0,4.91162 0,4.91162 0,0 -25.17089,-0.30713 -25.17089,-0.30713 0,0 -25.47803,5.21875 -25.47803,5.21875 0,0 -26.09229,6.13916 -26.09229,6.13916 0,0 -18.11084,10.12988 -18.11084,10.12988 -0.16064,-0.51709 -0.30908,-1.03613 -0.44629,-1.55761 0,0 -2.0249,1.125 -2.0249,1.125 0,-5.09375 0.26856,-9.78174 0.74072,-14.09131 0.76172,-18.30567 10.93946,-35.20459 10.93946,-35.20459 24.25049,-36.5293 26.39892,-50.34278 26.39892,-50.34278 z"
             style="fill:#da1259;fill-opacity:1;fill-rule:nonzero;stroke:none"
             id="path3494"
             inkscape:connector-curvature="0" /></g></g><path
         d="m 49.45166,-50.37842 c 0,-2.96679 2.40527,-5.37207 5.37207,-5.37207 2.9668,0 5.37158,2.40528 5.37158,5.37207 0,2.9668 -2.40478,5.37158 -5.37158,5.37158 -2.9668,0 -5.37207,-2.40478 -5.37207,-5.37158 z"
         style="fill:#fcd31d;fill-opacity:1;fill-rule:nonzero;stroke:none"
         id="path3496"
         inkscape:connector-curvature="0" /><g
         id="g3498"><g
           id="g3500"
           clip-path="url(#clipPath3502)"><path
             d="m 52.36768,-50.2251 c 0,-2.96679 2.40527,-5.37207 5.37207,-5.37207 2.96679,0 5.37158,2.40528 5.37158,5.37207 0,2.9668 -2.40479,5.37207 -5.37158,5.37207 -2.9668,0 -5.37207,-2.40527 -5.37207,-5.37207 z"
             style="fill:#231f20;fill-opacity:1;fill-rule:nonzero;stroke:none"
             id="path3506"
             inkscape:connector-curvature="0" /></g></g><path
         d="m 103.14307,-66.05615 c -1.36475,1.68408 -3.07666,2.52636 -5.13526,2.52636 -0.5083,0 -1.36035,-0.06689 -2.55664,-0.20068 -1.19678,-0.1333 -2.14258,-0.20019 -2.8374,-0.20019 0,0 -7.6499,21.85644 -7.6499,21.85644 -0.34619,0.98926 -0.18701,1.60401 0.47754,1.84473 1.00097,0.34765 1.5581,0.62842 1.67041,0.84228 -0.09229,0.18701 -0.34327,0.52149 -0.75196,1.00244 -0.52002,0.1875 -0.78027,0.28077 -0.78027,0.28077 0,0 -8.42188,0 -8.42188,0 -0.34765,0 -0.45117,-0.2002 -0.31103,-0.60157 0.1875,-0.53466 0.85693,-0.9956 2.0083,-1.3833 1.15186,-0.38769 1.8916,-1.04931 2.21875,-1.98535 0,0 7.6499,-21.85644 7.6499,-21.85644 0.42774,0 -0.56152,0 -2.96777,0 -1.82764,0.02685 -3.2666,0.01367 -4.31787,-0.03907 -1.46973,-0.07763 -2.24903,-0.22021 -2.33692,-0.42724 1.04248,-1.37354 2.125,-2.06055 3.24756,-2.06055 0,0 20.13282,0 20.13282,0 0,0 0.22021,0.13379 0.66162,0.40137 z"
         style="fill:#e71e4f;fill-opacity:1;fill-rule:evenodd;stroke:none"
         id="path3510"
         inkscape:connector-curvature="0" /><path
         d="m 113.46533,-55.54932 c -0.02,0.13379 -0.29883,0.43457 -0.83691,0.90235 -0.53809,0.46826 -0.87403,0.70215 -1.00781,0.70215 -0.18702,0 -0.61329,-0.21387 -1.2793,-0.64161 -0.66553,-0.42773 -1.25244,-0.6416 -1.76074,-0.6416 -1.17627,0 -2.29639,0.6416 -3.36036,1.92481 -0.81835,0.9624 -1.46142,2.1123 -1.92919,3.44873 0,0 -2.72315,7.78027 -2.72315,7.78027 -0.28027,0.80225 -0.17432,1.37695 0.31885,1.72461 0.23828,0.16016 0.75683,0.3208 1.55615,0.48096 0.57764,0.10742 0.82422,0.28125 0.74024,0.52148 -0.29004,0.8291 -0.99659,1.24317 -2.11963,1.24317 0,0 -7.49952,0 -7.49952,0 -0.72216,0 -1.04052,-0.12012 -0.95654,-0.36084 0.24317,-0.69532 0.94043,-1.21631 2.09131,-1.56397 1.15088,-0.34765 1.9043,-1.0293 2.25977,-2.04541 0,0 4.30908,-12.31201 4.30908,-12.31201 0.27148,-0.77539 0.2583,-1.31006 -0.04,-1.604 -0.14014,-0.13379 -0.49902,-0.27393 -1.07568,-0.4209 -0.57666,-0.14698 -0.9209,-0.36768 -1.03174,-0.66211 0.4331,-0.85547 0.93017,-1.28321 1.4917,-1.28321 0,0 4.73242,0 4.73242,0 0.72217,0 0.90527,0.50831 0.54931,1.52393 -0.084,0.24072 -0.22753,0.5752 -0.43115,1.00244 -0.20312,0.42822 -0.33252,0.72217 -0.38867,0.88233 3.08398,-2.59327 5.35156,-3.88965 6.80225,-3.88965 0.72558,0 1.18066,0.38769 1.36572,1.1626 0.0703,0.72216 0.14453,1.43066 0.22363,2.12548 z"
         style="fill:#e71e4f;fill-opacity:1;fill-rule:evenodd;stroke:none"
         id="path3512"
         inkscape:connector-curvature="0" /><path
         d="m 129.16602,-50.25537 c -0.76758,2.19238 -2.08692,4.35791 -3.9585,6.49707 -2.24316,2.51318 -4.36719,3.76953 -6.37256,3.76953 -1.63086,0 -2.5332,-0.93555 -2.70703,-2.80713 -0.10986,-1.44385 0.1582,-3.08838 0.8042,-4.9331 0.81396,-2.32569 2.10058,-4.39795 3.85986,-6.21582 2.04932,-2.11231 4.16992,-3.16846 6.36231,-3.16846 1.84521,0 2.84424,0.73535 2.99804,2.20605 0.0908,0.96241 -0.23779,2.51319 -0.98632,4.65186 z m 5.04101,-4.09082 c 1.04785,-2.99414 -1.03515,-4.49121 -6.24853,-4.49121 -3.12842,0 -6.15577,1.18261 -9.08252,3.54883 -2.92725,2.36621 -4.94239,5.12695 -6.04688,8.28173 -0.86084,2.45948 -0.95947,4.58496 -0.29639,6.37647 0.74952,2.00537 2.32081,3.00781 4.7129,3.00781 1.63964,0 3.36816,-0.56152 5.18603,-1.68457 1.69092,-1.06933 3.12598,-2.40625 4.30615,-4.01025 -0.0469,0.13379 -0.20459,0.50781 -0.47363,1.12304 -0.26855,0.61475 -0.46826,1.10938 -0.59912,1.48389 -0.6084,1.73779 -0.48486,2.60645 0.3706,2.60645 0,0 3.89014,0 3.89014,0 0.8291,0 1.39795,-0.44092 1.70654,-1.32325 0.0845,-0.24072 -0.0908,-0.42773 -0.52539,-0.56152 -0.55859,-0.16016 -0.91211,-0.33398 -1.06054,-0.52148 -0.32373,-0.37403 -0.33545,-0.98926 -0.0361,-1.84473 0,0 4.19678,-11.99121 4.19678,-11.99121 z"
         style="fill:#e71e4f;fill-opacity:1;fill-rule:evenodd;stroke:none"
         id="path3514"
         inkscape:connector-curvature="0" /><path
         d="m 157.02344,-39.38721 c -0.0923,0.18701 -0.34326,0.52149 -0.75196,1.00244 -0.52002,0.1875 -0.78027,0.28077 -0.78027,0.28077 0,0 -8.10107,0 -8.10107,0 -0.34766,0 -0.45118,-0.2002 -0.31104,-0.60157 0.17822,-0.50781 0.84082,-0.96923 1.98828,-1.3833 1.14795,-0.41455 1.88086,-1.07617 2.19873,-1.98535 0,0 2.68116,-7.65967 2.68116,-7.65967 0.71093,-2.03222 1.06933,-3.47558 1.0747,-4.33154 -0.0562,-1.44336 -0.91308,-2.16553 -2.5708,-2.16553 -2.40625,0 -4.62207,1.40381 -6.64746,4.21094 -1.43164,1.95166 -2.65283,4.37158 -3.66308,7.25879 0,0 -0.94043,2.68701 -0.94043,2.68701 -0.27149,0.77539 -0.25831,1.31006 0.04,1.60449 0.14014,0.1333 0.49219,0.27393 1.05567,0.4209 0.56348,0.14697 0.90088,0.36768 1.01172,0.66162 -0.0923,0.18701 -0.34278,0.52149 -0.75196,1.00244 -0.52002,0.1875 -0.78027,0.28077 -0.78027,0.28077 0,0 -8.10107,0 -8.10107,0 -0.34766,0 -0.45118,-0.2002 -0.31055,-0.60157 0.17773,-0.50781 0.84473,-0.9624 2.00098,-1.36328 1.15625,-0.40088 1.89843,-1.06933 2.22607,-2.00537 0,0 4.30859,-12.31201 4.30859,-12.31201 0.3462,-0.98926 0.20508,-1.604 -0.42334,-1.84473 -0.97705,-0.37402 -1.53857,-0.65478 -1.68408,-0.84228 0.0923,-0.18701 0.35547,-0.521 0.78955,-1.00244 0.46436,-0.18702 0.69629,-0.28077 0.69629,-0.28077 0,0 4.66455,0 4.66455,0 0.74463,0 0.89649,0.62842 0.45703,1.88526 -0.10302,0.29394 -0.27002,0.69482 -0.50146,1.20264 -0.23145,0.5083 -0.375,0.84228 -0.43115,1.00292 0,0 0.0806,0 0.0806,0 2.83106,-3.04785 5.95801,-4.57177 9.38037,-4.57177 4.09034,0 5.0459,3.11474 2.86524,9.34424 -0.33692,0.9624 -0.85791,2.29931 -1.56397,4.01025 -0.70556,1.71094 -1.15673,2.84717 -1.35351,3.40869 -0.271,0.77539 -0.25781,1.31006 0.04,1.60449 0.13135,0.16016 0.50732,0.30713 1.12939,0.44092 0.54151,0.13379 0.86719,0.34766 0.97852,0.6416 z"
         style="fill:#e71e4f;fill-opacity:1;fill-rule:evenodd;stroke:none"
         id="path3516"
         inkscape:connector-curvature="0" /><path
         d="m 175.35938,-43.79883 c -0.69239,1.97852 -1.99708,3.5293 -3.91407,4.65235 -1.71924,1.01562 -3.59472,1.52392 -5.62646,1.52392 -1.20313,0 -2.38135,-0.14697 -3.53516,-0.4414 -1.65918,-0.45411 -2.34375,-1.0962 -2.05371,-1.92481 0,0 1.30566,-3.72949 1.30566,-3.72949 0.0933,-0.26758 0.24512,-0.54834 0.45508,-0.84229 0.56397,-0.16064 0.84619,-0.24072 0.84619,-0.24072 0.13379,0 0.22071,0.40137 0.26075,1.20313 0.0454,0.48144 0.0728,0.97607 0.082,1.48388 0.25439,1.87158 1.29004,2.80713 3.1084,2.80713 1.20312,0 2.29834,-0.34082 3.28564,-1.02246 0.98682,-0.68164 1.68652,-1.61084 2.09815,-2.78711 0.36523,-1.04297 -0.10303,-2.1123 -1.40381,-3.2085 -1.23096,-0.98925 -2.46241,-1.97851 -3.69336,-2.96777 -1.23535,-1.2832 -1.59571,-2.66016 -1.08106,-4.13037 0.5708,-1.63086 1.80078,-2.96777 3.68946,-4.01074 1.6914,-0.93555 3.39257,-1.40332 5.10351,-1.40332 3.47559,0 5.03565,0.50781 4.68018,1.52392 0,0 -0.98242,2.80713 -0.98242,2.80713 -0.0937,0.26709 -0.48194,0.57471 -1.16504,0.92237 -0.29834,-0.82862 -0.60987,-1.65772 -0.93457,-2.48633 -0.4253,-0.69532 -1.23926,-1.04297 -2.44239,-1.04297 -0.88232,0 -1.71045,0.22754 -2.48437,0.68213 -0.87305,0.50781 -1.45899,1.18945 -1.75879,2.04492 -0.25244,0.72217 0.28516,1.63086 1.6123,2.72705 2.0669,1.65772 3.27491,2.71387 3.62354,3.16846 1.20605,1.44384 1.51416,3.00781 0.92432,4.69189 z"
         style="fill:#e71e4f;fill-opacity:1;fill-rule:evenodd;stroke:none"
         id="path3518"
         inkscape:connector-curvature="0" /><path
         d="m 217.59814,-65.85596 c 0,0 -0.15527,0.21387 -0.46533,0.6416 -0.70019,0.32081 -1.43213,0.65528 -2.1958,1.00293 -0.76318,0.34766 -1.28515,0.92237 -1.56592,1.72461 0,0 -8.0708,23.05957 -8.0708,23.05957 -0.26172,0.74854 -0.62646,1.17627 -1.09326,1.28321 -0.063,0.02685 -0.64502,0.04004 -1.74512,0.04004 -0.58349,-0.48096 -2.333,-3.95655 -5.24902,-10.42676 -1.69482,-3.82324 -3.38525,-7.66016 -5.0708,-11.50977 0,0 -6.28857,17.96631 -6.28857,17.96631 -0.26172,0.74854 -0.25733,1.27002 0.0142,1.56397 0.13134,0.16064 0.50293,0.3208 1.11523,0.48144 0.54102,0.13379 0.88086,0.34766 1.01855,0.6416 -0.0923,0.18701 -0.34277,0.52149 -0.75195,1.00244 -0.52002,0.1875 -0.78027,0.28077 -0.78027,0.28077 0,0 -7.01807,0 -7.01807,0 -0.34765,0 -0.45117,-0.2002 -0.31103,-0.60157 0,0 0.15527,-0.21386 0.46533,-0.6416 0.72705,-0.3208 1.46582,-0.65478 2.21582,-1.00244 0.75,-0.34766 1.26514,-0.92236 1.5459,-1.72461 0,0 7.13037,-20.37256 7.13037,-20.37256 -0.31152,-0.56152 -0.85547,-1.06982 -1.63233,-1.52441 -0.9624,-0.53467 -1.5708,-0.93555 -1.8247,-1.20264 0.11914,-0.1875 0.37011,-0.52148 0.75342,-1.00293 0.52148,-0.18701 0.78222,-0.28076 0.78222,-0.28076 0,0 4.82813,0 4.82813,0 1.07275,0 3.13427,3.42236 6.18359,10.2666 1.63721,3.98389 3.27832,7.9541 4.92432,11.91113 0,0 6.37256,-18.20703 6.37256,-18.20703 0.27148,-0.77539 0.2666,-1.29687 -0.0142,-1.56445 -0.13086,-0.16016 -0.47803,-0.31396 -1.04151,-0.46094 -0.56347,-0.14697 -0.92773,-0.36767 -1.0918,-0.66162 0.11866,-0.1875 0.36915,-0.52148 0.75196,-1.00293 0.51953,-0.18701 0.77978,-0.28076 0.77978,-0.28076 0,0 7.01856,0 7.01856,0 0.34717,0 0.45068,0.20068 0.31054,0.60156 z"
         style="fill:#e71e4f;fill-opacity:1;fill-rule:evenodd;stroke:none"
         id="path3520"
         inkscape:connector-curvature="0" /><path
         d="m 234.58154,-39.46729 c -0.31787,0.90918 -0.99853,1.36329 -2.04101,1.36329 0,0 -4.37158,0 -4.37158,0 -0.72168,0 -0.90967,-0.49463 -0.56348,-1.4834 0.0747,-0.21436 0.20898,-0.52149 0.40283,-0.92285 0.19385,-0.40088 0.31445,-0.66846 0.36133,-0.80176 -1.95459,1.22949 -3.34961,2.04492 -4.18506,2.44629 -1.65381,0.82861 -3.08203,1.24316 -4.28516,1.24316 -4.06396,0 -5.28662,-2.3125 -3.66796,-6.93799 0,0 3.43896,-9.82568 3.43896,-9.82568 0.34619,-0.98926 0.20068,-1.604 -0.43701,-1.84473 -1.01856,-0.37402 -1.58887,-0.65478 -1.71045,-0.84228 0.0923,-0.18701 0.35644,-0.521 0.79199,-1.00244 0.46631,-0.18702 0.69971,-0.28077 0.69971,-0.28077 0,0 4.65234,0 4.65234,0 0.82862,0 0.88233,1.03174 0.16016,3.09522 -0.23438,0.66943 -0.74658,1.94189 -1.53711,3.81787 -0.79004,1.87549 -1.3584,3.30908 -1.70557,4.30029 -1.63183,4.6626 -1.12402,6.99414 1.52295,6.99414 3.90332,0 7.15869,-3.72461 9.76563,-11.17382 0,0 1.06884,-3.05469 1.06884,-3.05469 0.3379,-0.96436 0.18799,-1.56738 -0.4497,-1.80811 -0.98242,-0.40185 -1.53418,-0.69677 -1.65576,-0.88427 0.0928,-0.1875 0.35693,-0.52295 0.79296,-1.00538 0.43995,-0.1875 0.66016,-0.28125 0.66016,-0.28125 0,0 4.65186,0 4.65186,0 0.85547,0 0.51172,2.20557 -1.03272,6.61719 -0.47705,1.36328 -1.15527,3.16846 -2.03515,5.41406 -0.8794,2.24561 -1.39405,3.58252 -1.54395,4.01026 -0.29932,0.85547 -0.23242,1.45752 0.20068,1.80469 0.20801,0.16064 0.67969,0.3208 1.41553,0.48144 0.51758,0.10693 0.72949,0.29395 0.63574,0.56152 z"
         style="fill:#e71e4f;fill-opacity:1;fill-rule:evenodd;stroke:none"
         id="path3522"
         inkscape:connector-curvature="0" /><path
         d="m 252.75537,-43.79883 c -0.69238,1.97852 -1.99707,3.5293 -3.91406,4.65235 -1.71924,1.01562 -3.59473,1.52392 -5.62695,1.52392 -1.20313,0 -2.38135,-0.14697 -3.53516,-0.4414 -1.65918,-0.45411 -2.34326,-1.0962 -2.05322,-1.92481 0,0 1.30517,-3.72949 1.30517,-3.72949 0.0937,-0.26758 0.24512,-0.54834 0.45508,-0.84229 0.56445,-0.16064 0.84619,-0.24072 0.84619,-0.24072 0.13379,0 0.22071,0.40137 0.26074,1.20313 0.0454,0.48144 0.0728,0.97607 0.0825,1.48388 0.25391,1.87158 1.29004,2.80713 3.10791,2.80713 1.20313,0 2.29834,-0.34082 3.28565,-1.02246 0.9873,-0.68164 1.68652,-1.61084 2.09814,-2.78711 0.36524,-1.04297 -0.10254,-2.1123 -1.40332,-3.2085 -1.23144,-0.98925 -2.4624,-1.97851 -3.69385,-2.96777 -1.23535,-1.2832 -1.5957,-2.66016 -1.08056,-4.13037 0.57031,-1.63086 1.80029,-2.96777 3.68945,-4.01074 1.69092,-0.93555 3.39209,-1.40332 5.10303,-1.40332 3.47607,0 5.03564,0.50781 4.68017,1.52392 0,0 -0.98242,2.80713 -0.98242,2.80713 -0.0937,0.26709 -0.48193,0.57471 -1.16504,0.92237 -0.29785,-0.82862 -0.60937,-1.65772 -0.93457,-2.48633 -0.4248,-0.69532 -1.23925,-1.04297 -2.44238,-1.04297 -0.88232,0 -1.71045,0.22754 -2.48437,0.68213 -0.87305,0.50781 -1.45899,1.18945 -1.75831,2.04492 -0.25292,0.72217 0.28467,1.63086 1.61231,2.72705 2.06641,1.65772 3.27441,2.71387 3.62305,3.16846 1.20605,1.44384 1.51416,3.00781 0.9248,4.69189 z"
         style="fill:#e71e4f;fill-opacity:1;fill-rule:evenodd;stroke:none"
         id="path3524"
         inkscape:connector-curvature="0" /><path
         d="m 273.21094,-50.25537 c -0.76709,2.19238 -2.08643,4.35791 -3.95801,6.49707 -2.24316,2.51318 -4.36719,3.76953 -6.37256,3.76953 -1.63086,0 -2.5332,-0.93555 -2.70703,-2.80713 -0.10986,-1.44385 0.1582,-3.08838 0.8042,-4.9331 0.81396,-2.32569 2.10059,-4.39795 3.85986,-6.21582 2.04932,-2.11231 4.16992,-3.16846 6.36231,-3.16846 1.84521,0 2.84424,0.73535 2.99804,2.20605 0.0908,0.96241 -0.23779,2.51319 -0.98681,4.65186 z m 5.0415,-4.09082 c 1.04785,-2.99414 -1.03515,-4.49121 -6.24853,-4.49121 -3.12793,0 -6.15577,1.18261 -9.08252,3.54883 -2.92725,2.36621 -4.94239,5.12695 -6.04688,8.28173 -0.86084,2.45948 -0.95947,4.58496 -0.29638,6.37647 0.75,2.00537 2.3208,3.00781 4.71289,3.00781 1.63964,0 3.36816,-0.56152 5.18554,-1.68457 1.69141,-1.06933 3.12696,-2.40625 4.30664,-4.01025 -0.0469,0.13379 -0.20459,0.50781 -0.47363,1.12304 -0.26855,0.61475 -0.46826,1.10938 -0.59912,1.48389 -0.6084,1.73779 -0.48486,2.60645 0.3706,2.60645 0,0 3.89014,0 3.89014,0 0.8291,0 1.39795,-0.44092 1.70654,-1.32325 0.0845,-0.24072 -0.0908,-0.42773 -0.52539,-0.56152 -0.55859,-0.16016 -0.91211,-0.33398 -1.06054,-0.52148 -0.32373,-0.37403 -0.33594,-0.98926 -0.0361,-1.84473 0,0 4.19678,-11.99121 4.19678,-11.99121 z"
         style="fill:#e71e4f;fill-opacity:1;fill-rule:nonzero;stroke:none"
         id="path3526"
         inkscape:connector-curvature="0" /></g></g></svg>